HIERARCHY
ROOT hips
{
	OFFSET -0.003675 0.299928 -0.021708
	CHANNELS 6 Xposition Yposition Zposition Xrotation Yrotation Zrotation
	JOINT LowerBack
	{
		OFFSET 0.000919 0.177588 0.009275
		CHANNELS 3 Xrotation Yrotation Zrotation
		JOINT spine
		{
			OFFSET 0.000919 0.177588 0.009275
			CHANNELS 3 Xrotation Yrotation Zrotation
			JOINT chest
			{
				OFFSET 0.000456 0.100015 0.004638
				CHANNELS 3 Xrotation Yrotation Zrotation
				JOINT neck
				{
					OFFSET 0.000456 0.100015 0.004638
					CHANNELS 3 Xrotation Yrotation Zrotation
					JOINT head
					{
						OFFSET 0.000924 0.155147 0.009274
						CHANNELS 6 Xposition Yposition Zposition Xrotation Yrotation Zrotation
						End Site
						{
							OFFSET 0.000000 0.153400 0.000000
						}
					}
				}
				JOINT shoulder.L
				{
					OFFSET 0.019937 0.078966 0.057518
					CHANNELS 6 Xposition Yposition Zposition Yrotation Xrotation Zrotation
					JOINT upper_arm.L
					{
						OFFSET 0.177024 -0.020465 -0.095062
						CHANNELS 6 Xposition Yposition Zposition Xrotation Yrotation Zrotation
						JOINT forearm.L
						{
							OFFSET 0.247100 -0.135500 -0.061800
							CHANNELS 3 Xrotation Yrotation Zrotation
							JOINT hand.L
							{
								OFFSET 0.217000 -0.143000 0.039300
								CHANNELS 3 Xrotation Yrotation Zrotation
								JOINT palm.01.L
								{
									OFFSET 0.021770 -0.038291 0.012954
									CHANNELS 6 Xposition Yposition Zposition Yrotation Xrotation Zrotation
									JOINT f_index.01.L
									{
										OFFSET 0.053215 -0.044137 0.008236
										CHANNELS 3 Xrotation Yrotation Zrotation
										JOINT f_index.02.L
										{
											OFFSET 0.036108 -0.024723 -0.010656
											CHANNELS 3 Xrotation Yrotation Zrotation
											JOINT f_index.03.L
											{
												OFFSET 0.021342 -0.014948 -0.010846
												CHANNELS 3 Xrotation Yrotation Zrotation
												End Site
												{
													OFFSET 0.015600 -0.009860 -0.013421
												}
											}
										}
									}
									JOINT thumb.01.L
									{
										OFFSET -0.009090 -0.002348 -0.024223
										CHANNELS 6 Xposition Yposition Zposition Xrotation Yrotation Zrotation
										JOINT thumb.02.L
										{
											OFFSET 0.019713 -0.035076 -0.011120
											CHANNELS 3 Xrotation Yrotation Zrotation
											JOINT thumb.03.L
											{
												OFFSET 0.024877 -0.021748 -0.005176
												CHANNELS 3 Xrotation Yrotation Zrotation
												End Site
												{
													OFFSET 0.016125 -0.013029 -0.001569
												}
											}
										}
									}
								}
								JOINT palm.02.L
								{
									OFFSET 0.032823 -0.025104 0.012281
									CHANNELS 6 Xposition Yposition Zposition Yrotation Xrotation Zrotation
									JOINT f_middle.01.L
									{
										OFFSET 0.055723 -0.038469 0.008037
										CHANNELS 3 Xrotation Yrotation Zrotation
										JOINT f_middle.02.L
										{
											OFFSET 0.038167 -0.027473 -0.015582
											CHANNELS 3 Xrotation Yrotation Zrotation
											JOINT f_middle.03.L
											{
												OFFSET 0.021707 -0.016587 -0.017037
												CHANNELS 3 Xrotation Yrotation Zrotation
												End Site
												{
													OFFSET 0.014112 -0.010584 -0.014294
												}
											}
										}
									}
								}
								JOINT palm.03.L
								{
									OFFSET 0.039230 -0.011402 0.008390
									CHANNELS 6 Xposition Yposition Zposition Yrotation Xrotation Zrotation
									JOINT f_ring.01.L
									{
										OFFSET 0.061796 -0.031470 0.007910
										CHANNELS 3 Xrotation Yrotation Zrotation
										JOINT f_ring.02.L
										{
											OFFSET 0.033092 -0.023401 -0.019127
											CHANNELS 3 Xrotation Yrotation Zrotation
											JOINT f_ring.03.L
											{
												OFFSET 0.021392 -0.015362 -0.017824
												CHANNELS 3 Xrotation Yrotation Zrotation
												End Site
												{
													OFFSET 0.008670 -0.007297 -0.014686
												}
											}
										}
									}
								}
								JOINT palm.04.L
								{
									OFFSET 0.043417 0.002450 0.002889
									CHANNELS 6 Xposition Yposition Zposition Yrotation Xrotation Zrotation
									JOINT f_pinky.01.L
									{
										OFFSET 0.069986 -0.026156 0.003627
										CHANNELS 3 Xrotation Yrotation Zrotation
										JOINT f_pinky.02.L
										{
											OFFSET 0.018520 -0.012813 -0.016429
											CHANNELS 3 Xrotation Yrotation Zrotation
											JOINT f_pinky.03.L
											{
												OFFSET 0.013822 -0.009796 -0.014947
												CHANNELS 3 Xrotation Yrotation Zrotation
												End Site
												{
													OFFSET 0.007238 -0.006103 -0.011657
												}
											}
										}
									}
								}
							}
						}
					}
				}
				JOINT shoulder.R
				{
					OFFSET -0.016662 0.078957 0.057696
					CHANNELS 6 Xposition Yposition Zposition Yrotation Xrotation Zrotation
					JOINT upper_arm.R
					{
						OFFSET -0.176972 -0.020537 -0.095144
						CHANNELS 6 Xposition Yposition Zposition Xrotation Yrotation Zrotation
						JOINT forearm.R
						{
							OFFSET -0.247100 -0.135500 -0.061800
							CHANNELS 3 Xrotation Yrotation Zrotation
							JOINT hand.R
							{
								OFFSET -0.217000 -0.143000 0.039300
								CHANNELS 3 Xrotation Yrotation Zrotation
								JOINT palm.01.R
								{
									OFFSET -0.021773 -0.038278 0.012988
									CHANNELS 6 Xposition Yposition Zposition Yrotation Xrotation Zrotation
									JOINT f_index.01.R
									{
										OFFSET -0.053212 -0.044139 0.008249
										CHANNELS 3 Xrotation Yrotation Zrotation
										JOINT f_index.02.R
										{
											OFFSET -0.036049 -0.024835 -0.010634
											CHANNELS 3 Xrotation Yrotation Zrotation
											JOINT f_index.03.R
											{
												OFFSET -0.021371 -0.014881 -0.010866
												CHANNELS 3 Xrotation Yrotation Zrotation
												End Site
												{
													OFFSET -0.015584 -0.009883 -0.013422
												}
											}
										}
									}
									JOINT thumb.01.R
									{
										OFFSET 0.009113 -0.002381 -0.024211
										CHANNELS 6 Xposition Yposition Zposition Xrotation Yrotation Zrotation
										JOINT thumb.02.R
										{
											OFFSET -0.019694 -0.035097 -0.011088
											CHANNELS 3 Xrotation Yrotation Zrotation
											JOINT thumb.03.R
											{
												OFFSET -0.024867 -0.021762 -0.005168
												CHANNELS 3 Xrotation Yrotation Zrotation
												End Site
												{
													OFFSET -0.016120 -0.013036 -0.001565
												}
											}
										}
									}
								}
								JOINT palm.02.R
								{
									OFFSET -0.032828 -0.025095 0.012286
									CHANNELS 6 Xposition Yposition Zposition Yrotation Xrotation Zrotation
									JOINT f_middle.01.R
									{
										OFFSET -0.055721 -0.038472 0.008040
										CHANNELS 3 Xrotation Yrotation Zrotation
										JOINT f_middle.02.R
										{
											OFFSET -0.038101 -0.027593 -0.015557
											CHANNELS 3 Xrotation Yrotation Zrotation
											JOINT f_middle.03.R
											{
												OFFSET -0.021730 -0.016530 -0.017054
												CHANNELS 3 Xrotation Yrotation Zrotation
												End Site
												{
													OFFSET -0.014096 -0.010608 -0.014293
												}
											}
										}
									}
								}
								JOINT palm.03.R
								{
									OFFSET -0.039192 -0.011488 0.008390
									CHANNELS 6 Xposition Yposition Zposition Yrotation Xrotation Zrotation
									JOINT f_ring.01.R
									{
										OFFSET -0.061839 -0.031387 0.007876
										CHANNELS 3 Xrotation Yrotation Zrotation
										JOINT f_ring.02.R
										{
											OFFSET -0.033068 -0.023437 -0.019125
											CHANNELS 3 Xrotation Yrotation Zrotation
											JOINT f_ring.03.R
											{
												OFFSET -0.021371 -0.015393 -0.017822
												CHANNELS 3 Xrotation Yrotation Zrotation
												End Site
												{
													OFFSET -0.008654 -0.007321 -0.014684
												}
											}
										}
									}
								}
								JOINT palm.04.R
								{
									OFFSET -0.043421 0.002443 0.002845
									CHANNELS 6 Xposition Yposition Zposition Yrotation Xrotation Zrotation
									JOINT f_pinky.01.R
									{
										OFFSET -0.069983 -0.026169 0.003599
										CHANNELS 3 Xrotation Yrotation Zrotation
										JOINT f_pinky.02.R
										{
											OFFSET -0.018501 -0.012842 -0.016428
											CHANNELS 3 Xrotation Yrotation Zrotation
											JOINT f_pinky.03.R
											{
												OFFSET -0.013806 -0.009821 -0.014946
												CHANNELS 3 Xrotation Yrotation Zrotation
												End Site
												{
													OFFSET -0.007226 -0.006121 -0.011655
												}
											}
										}
									}
								}
							}
						}
					}
				}
			}
		}
	}
	JOINT pelvis.L
	{
		OFFSET 0.000000 0.000000 0.000000
		CHANNELS 6 Xposition Yposition Zposition Xrotation Yrotation Zrotation
		JOINT thigh.L
		{
			OFFSET 0.101675 0.001054 -0.000000
			CHANNELS 3 Xrotation Yrotation Zrotation
			JOINT shin.L
			{
				OFFSET 0.000000 -0.534800 0.041000
				CHANNELS 3 Xrotation Yrotation Zrotation
				JOINT foot.L
				{
					OFFSET 0.000000 -0.452000 -0.044800
					CHANNELS 3 Xrotation Yrotation Zrotation
					JOINT toe.L
					{
						OFFSET -0.000000 -0.068500 0.109600
						CHANNELS 3 Xrotation Yrotation Zrotation
						End Site
						{
							OFFSET -0.000000 0.000000 0.067200
						}
					}
				}
				JOINT heel.L
				{
					OFFSET 0.000000 -0.452000 -0.044800
					CHANNELS 3 Xrotation Yrotation Zrotation
					JOINT heel.02.L
					{
						OFFSET -0.038000 -0.085200 0.016200
						CHANNELS 6 Xposition Yposition Zposition Xrotation Yrotation Zrotation
						End Site
						{
							OFFSET 0.080000 -0.000000 0.000000
						}
					}
				}
			}
		}
	}
	JOINT pelvis.R
	{
		OFFSET 0.000000 0.000000 0.000000
		CHANNELS 6 Xposition Yposition Zposition Xrotation Yrotation Zrotation
		JOINT thigh.R
		{
			OFFSET -0.094325 0.001054 0.000000
			CHANNELS 3 Xrotation Yrotation Zrotation
			JOINT shin.R
			{
				OFFSET 0.000000 -0.534800 0.041000
				CHANNELS 3 Xrotation Yrotation Zrotation
				JOINT foot.R
				{
					OFFSET 0.000000 -0.452000 -0.044800
					CHANNELS 3 Xrotation Yrotation Zrotation
					JOINT toe.R
					{
						OFFSET -0.000000 -0.068500 0.109600
						CHANNELS 3 Xrotation Yrotation Zrotation
						End Site
						{
							OFFSET -0.000000 0.000000 0.067200
						}
					}
				}
				JOINT heel.R
				{
					OFFSET 0.000000 -0.452000 -0.044800
					CHANNELS 3 Xrotation Yrotation Zrotation
					JOINT heel.02.R
					{
						OFFSET 0.038000 -0.085200 0.016200
						CHANNELS 6 Xposition Yposition Zposition Xrotation Yrotation Zrotation
						End Site
						{
							OFFSET -0.080000 0.000000 -0.000000
						}
					}
				}
			}
		}
	}
}
MOTION
Frames: 4
Frame Time: 0.041667
-0.021168 0.282384 -0.017137 98.462231 19.848490 -97.023418 0.000000 0.000000 0.000001 0.000000 0.000001 0.000000 -0.000001 -0.000000 -0.000001 -0.000001 -0.000000 -0.000001 0.000924 0.155147 0.009274 0.943207 0.002756 5.929523 0.019937 0.078966 0.057518 1.261978 3.412478 35.827320 0.177024 -0.020465 -0.095062 -56.018975 -3.025286 -40.700845 -15.207303 -16.635773 -10.714852 -0.000002 -0.000001 -0.000004 0.021770 -0.038291 0.012954 0.000002 -0.000001 -0.000000 -0.000003 0.000000 -0.000002 0.000002 -0.000000 0.000005 -0.000003 -0.000003 0.000003 -0.009090 -0.002348 -0.024223 -0.000002 -0.000001 -0.000001 0.000000 -0.000003 0.000001 0.000001 -0.000001 -0.000004 0.032823 -0.025104 0.012281 0.000002 -0.000002 0.000007 -0.000001 0.000000 -0.000007 -0.000004 -0.000003 0.000001 0.000001 -0.000006 0.000004 0.039230 -0.011402 0.008390 0.000001 0.000001 0.000004 0.000002 0.000000 -0.000000 -0.000000 0.000003 0.000003 0.000000 0.000000 0.000003 0.043417 0.002450 0.002889 0.000002 -0.000002 0.000000 -0.000001 -0.000006 0.000005 -0.000001 0.000000 0.000001 -0.000002 0.000003 0.000001 -0.016662 0.078957 0.057696 15.547421 4.154959 -41.828881 -0.176972 -0.020537 -0.095144 -68.749016 11.079722 36.986417 -10.152235 17.505363 -5.282417 -0.000001 -0.000004 0.000001 -0.021773 -0.038278 0.012988 -0.000001 -0.000003 -0.000003 -0.000004 0.000002 -0.000003 -0.000002 -0.000002 -0.000003 -0.000003 -0.000002 0.000003 0.009113 -0.002381 -0.024211 -0.000001 -0.000001 -0.000003 -0.000002 -0.000003 0.000000 -0.000001 0.000002 -0.000003 -0.032828 -0.025095 0.012286 -0.000001 -0.000006 -0.000005 0.000004 0.000000 -0.000001 0.000003 0.000000 -0.000000 0.000000 0.000003 -0.000002 -0.039192 -0.011488 0.008390 0.000001 -0.000005 -0.000002 0.000001 0.000004 -0.000002 0.000001 -0.000000 -0.000000 -0.000001 0.000002 -0.000002 -0.043421 0.002443 0.002845 0.000000 -0.000005 -0.000002 0.000000 0.000004 -0.000003 -0.000000 -0.000002 -0.000002 -0.000002 0.000002 -0.000003 -0.000000 0.000000 0.000000 -1.953798 0.210954 -3.417996 -96.914626 -0.263940 0.507406 100.770828 -0.046631 0.472701 0.000000 0.000000 -0.000001 -0.000001 -0.000002 0.000001 0.000000 -0.000000 -0.000001 -0.038000 -0.085200 0.016200 -0.000001 -0.000000 -0.000000 -0.000000 0.000000 0.000000 -1.904722 0.208514 -2.183997 -136.271290 -0.033910 -3.448663 67.190504 -1.925564 19.829887 0.000000 0.000001 0.000001 -0.000000 0.000000 0.000002 0.000002 0.000001 0.000001 0.038000 -0.085200 0.016200 0.000003 0.000000 -0.000002 
-0.020047 0.282103 -0.016482 99.718952 19.263085 -95.100849 0.000003 0.000001 0.000000 -0.000001 0.000002 0.000000 0.000002 -0.000001 -0.000000 0.000002 -0.000001 -0.000001 0.000924 0.155148 0.009274 -0.877925 0.008514 3.465664 0.019937 0.078966 0.057518 -0.694949 3.848882 37.532631 0.177025 -0.020465 -0.095062 -62.818664 -1.362103 -42.509499 -15.393689 -15.093929 -15.546429 -0.000001 0.000001 -0.000004 0.021770 -0.038291 0.012954 -0.000000 -0.000001 -0.000004 -0.000003 -0.000001 0.000003 0.000002 -0.000000 0.000005 0.000001 0.000005 0.000000 -0.009090 -0.002348 -0.024224 -0.000002 -0.000003 0.000002 -0.000001 0.000003 0.000001 -0.000003 -0.000002 -0.000002 0.032823 -0.025104 0.012281 -0.000002 0.000000 0.000002 0.000002 -0.000003 -0.000002 -0.000003 -0.000000 -0.000002 0.000000 -0.000002 0.000002 0.039230 -0.011402 0.008390 0.000002 -0.000001 0.000001 -0.000001 -0.000000 -0.000004 0.000000 -0.000001 0.000001 -0.000002 -0.000003 0.000001 0.043417 0.002450 0.002889 -0.000001 0.000002 -0.000007 0.000000 -0.000009 -0.000002 0.000006 0.000002 0.000000 0.000003 -0.000001 -0.000001 -0.016662 0.078957 0.057696 15.103520 4.756869 -43.307931 -0.176972 -0.020537 -0.095144 -75.309113 10.660237 38.378925 -9.427352 13.974320 0.237027 0.000001 0.000001 0.000000 -0.021773 -0.038278 0.012988 0.000003 -0.000003 -0.000002 -0.000002 0.000004 -0.000003 -0.000002 -0.000002 -0.000005 -0.000000 0.000002 0.000001 0.009113 -0.002381 -0.024211 0.000001 -0.000000 0.000001 -0.000002 -0.000001 -0.000003 0.000000 0.000002 -0.000003 -0.032828 -0.025095 0.012286 0.000003 -0.000002 -0.000001 -0.000003 0.000000 0.000001 -0.000000 0.000000 0.000001 -0.000006 0.000003 -0.000000 -0.039192 -0.011488 0.008390 0.000002 0.000000 0.000001 0.000001 0.000004 -0.000002 -0.000001 -0.000003 -0.000000 -0.000005 0.000002 -0.000003 -0.043421 0.002443 0.002845 0.000002 0.000000 -0.000001 -0.000006 0.000000 -0.000001 0.000003 -0.000002 -0.000002 0.000001 -0.000000 -0.000000 0.000000 0.000000 0.000000 -1.913615 0.269909 -4.126450 -92.491867 -0.099037 2.721915 98.809321 -0.122655 1.239816 0.000003 -0.000001 -0.000000 -0.000003 0.000000 -0.000001 0.000003 -0.000000 -0.000001 -0.038000 -0.085200 0.016200 -0.000001 -0.000003 -0.000001 -0.000000 0.000000 0.000000 -1.863464 0.266815 -2.892501 -140.433197 -0.054254 -3.443181 78.557161 -1.740897 17.859415 0.000000 0.000001 -0.000000 0.000004 -0.000000 0.000001 0.000003 0.000000 -0.000001 0.038000 -0.085200 0.016200 -0.000005 -0.000000 -0.000001 
-0.018916 0.283673 -0.015015 102.837869 19.839253 -96.558828 0.000003 -0.000001 0.000000 0.000002 0.000001 -0.000000 0.000000 0.000000 -0.000000 -0.000000 0.000001 0.000000 0.000924 0.155147 0.009274 -5.477424 0.020569 5.591897 0.019937 0.078966 0.057518 0.645577 3.554870 35.232257 0.177024 -0.020465 -0.095062 -57.704560 0.156762 -43.395713 -11.400498 -12.784459 -12.140788 -0.000001 -0.000001 -0.000004 0.021770 -0.038291 0.012954 0.000003 -0.000003 0.000001 -0.000001 0.000000 0.000001 -0.000001 0.000001 0.000008 -0.000002 0.000003 -0.000002 -0.009090 -0.002348 -0.024223 -0.000003 0.000000 0.000001 0.000000 -0.000001 -0.000001 -0.000002 -0.000000 -0.000001 0.032823 -0.025104 0.012281 0.000000 -0.000002 0.000007 0.000000 0.000001 -0.000003 0.000001 -0.000001 0.000005 -0.000000 -0.000002 0.000004 0.039230 -0.011402 0.008390 -0.000000 0.000000 0.000008 0.000003 -0.000000 0.000005 -0.000001 -0.000001 0.000001 0.000002 -0.000000 0.000003 0.043417 0.002450 0.002889 -0.000000 -0.000001 -0.000002 -0.000003 -0.000004 -0.000004 0.000002 -0.000002 0.000000 -0.000001 0.000000 0.000002 -0.016662 0.078957 0.057696 18.855821 4.599504 -41.816604 -0.176972 -0.020537 -0.095144 -74.228884 6.241304 39.381419 -2.446087 4.442306 2.896004 0.000002 -0.000003 0.000006 -0.021773 -0.038278 0.012988 0.000004 -0.000003 -0.000002 -0.000004 0.000002 0.000001 -0.000002 -0.000000 -0.000004 -0.000002 -0.000005 -0.000000 0.009114 -0.002381 -0.024212 0.000001 -0.000001 -0.000001 -0.000000 -0.000005 0.000002 0.000005 0.000001 0.000003 -0.032828 -0.025095 0.012286 0.000003 -0.000000 0.000002 -0.000001 0.000005 0.000006 -0.000003 -0.000003 0.000001 0.000000 0.000005 -0.000004 -0.039192 -0.011488 0.008390 0.000003 0.000001 0.000005 0.000002 0.000005 0.000000 -0.000000 0.000004 0.000002 -0.000001 0.000001 -0.000001 -0.043421 0.002443 0.002845 0.000002 -0.000003 0.000005 -0.000002 0.000004 -0.000002 -0.000003 -0.000001 0.000002 0.000007 0.000005 -0.000001 -0.000000 0.000000 0.000000 -1.886120 0.400777 -5.671588 -88.668942 -0.169013 1.812965 98.543859 0.030714 -0.307640 -0.000002 0.000001 -0.000001 0.000003 0.000001 0.000000 0.000002 0.000000 0.000000 -0.038000 -0.085200 0.016200 -0.000001 0.000001 -0.000001 -0.000000 0.000000 0.000000 -1.832169 0.395969 -4.437782 -137.458650 -0.072142 -3.865597 81.520220 -1.726078 17.702320 0.000000 -0.000001 -0.000001 0.000001 0.000001 0.000002 0.000005 -0.000001 0.000001 0.038000 -0.085200 0.016200 0.000001 0.000001 0.000000 
-0.017358 0.282125 -0.016552 100.313226 18.226454 -94.767591 0.000003 -0.000001 0.000000 -0.000001 -0.000000 0.000000 -0.000001 -0.000000 -0.000000 -0.000001 -0.000001 -0.000000 0.000924 0.155147 0.009274 -2.346809 0.011771 5.413266 0.019937 0.078966 0.057518 1.034560 3.175618 34.873757 0.177025 -0.020465 -0.095062 -54.484740 4.235974 -46.393005 -10.659104 -12.053932 -12.166246 -0.000001 0.000000 0.000001 0.021770 -0.038291 0.012954 0.000001 0.000001 0.000001 -0.000000 -0.000003 -0.000000 -0.000005 -0.000000 0.000005 -0.000000 0.000003 -0.000002 -0.009090 -0.002348 -0.024223 -0.000002 -0.000002 -0.000001 0.000002 -0.000001 0.000001 -0.000002 0.000003 0.000003 0.032823 -0.025104 0.012281 -0.000002 0.000002 0.000005 0.000002 0.000002 0.000002 -0.000001 -0.000003 0.000001 0.000003 0.000003 0.000001 0.039230 -0.011402 0.008390 0.000000 0.000001 0.000003 0.000001 0.000000 0.000001 -0.000000 0.000003 -0.000002 -0.000002 0.000001 0.000003 0.043417 0.002450 0.002889 0.000000 0.000001 -0.000000 -0.000002 -0.000006 -0.000002 0.000002 -0.000000 -0.000001 -0.000002 -0.000002 -0.000001 -0.016662 0.078957 0.057696 17.724032 3.930867 -40.744165 -0.176972 -0.020537 -0.095144 -75.904439 -6.191929 44.006943 0.052777 1.615863 7.052184 0.000004 -0.000000 -0.000005 -0.021773 -0.038278 0.012988 -0.000002 -0.000000 -0.000003 -0.000000 -0.000000 0.000002 0.000002 0.000001 -0.000002 -0.000003 0.000005 -0.000000 0.009113 -0.002381 -0.024211 0.000002 -0.000006 0.000000 -0.000002 -0.000000 0.000000 -0.000001 -0.000001 0.000001 -0.032828 -0.025095 0.012286 0.000002 -0.000001 -0.000001 0.000002 0.000004 -0.000001 0.000004 0.000003 -0.000000 -0.000003 0.000001 -0.000006 -0.039192 -0.011488 0.008390 -0.000002 0.000000 0.000001 -0.000003 -0.000000 0.000000 0.000004 0.000000 -0.000000 -0.000005 0.000002 -0.000003 -0.043421 0.002443 0.002845 -0.000001 -0.000001 0.000000 -0.000002 0.000003 0.000001 0.000001 -0.000001 -0.000000 -0.000001 -0.000003 0.000004 0.000000 0.000000 0.000000 -1.948487 0.413899 -5.758500 -89.186739 -0.188813 1.573571 95.504479 -0.334634 3.380396 -0.000002 0.000001 0.000001 -0.000001 0.000001 -0.000000 -0.000002 0.000001 0.000001 -0.038000 -0.085200 0.016200 0.000002 0.000001 0.000000 0.000000 0.000000 0.000000 -1.892542 0.408848 -4.524714 -134.177126 0.070693 -2.223621 76.631287 -1.255558 12.777186 0.000000 0.000001 0.000002 0.000001 -0.000000 -0.000000 0.000007 0.000000 0.000002 0.038000 -0.085200 0.016200 -0.000001 0.000001 0.000000 
